<svg xmlns="http://www.w3.org/2000/svg" viewBox="0 0 1024 1024"><circle cx="512" cy="512" r="512" fill="#20A0FF"/><path fill="#fff" d="M772.063 211.105a51.9 51.9 0 0 0-36.696-15.195H432.451a51.92 51.92 0 0 0-36.912 15.15 51.92 51.92 0 0 0-15.249 36.872v50.309h-91.665a51.9 51.9 0 0 0-36.696 15.195 51.9 51.9 0 0 0-15.202 36.695V776.2a51.93 51.93 0 0 0 15.241 36.742 51.9 51.9 0 0 0 36.78 15.149h329.927a51.9 51.9 0 0 0 37.205-14.918 51.88 51.88 0 0 0 15.48-36.973v-92.985h63.351a51.9 51.9 0 0 0 52.555-51.628V247.793a51.9 51.9 0 0 0-15.203-36.688M579.17 571.268c0 13.174-6.583 19.756-19.756 19.756h-85.608v85.608c0 13.173-6.582 19.756-19.756 19.756h-13.173q-19.758.002-19.756-19.756v-85.608h-85.607c-13.174 0-19.756-6.59-19.756-19.756v-13.173c0-13.173 6.59-19.756 19.756-19.756h85.607v-85.607c0-13.174 6.59-19.756 19.756-19.756h13.173c13.174 0 19.756 6.582 19.756 19.756v85.607h85.608q19.758-.002 19.756 19.756zm158.049 47.284c-.024 7.694-5.58 14.261-13.174 15.542H671.36V350.131a51.88 51.88 0 0 0-15.481-36.973 51.87 51.87 0 0 0-37.205-14.917H429.418v-32.397c0-11.638 9.43-21.076 21.068-21.076h265.65c11.638 0 21.076 9.438 21.076 21.076v352.708z"/></svg>