<svg xmlns="http://www.w3.org/2000/svg" preserveAspectRatio="xMidYMid" viewBox="0 0 100 100"><rect width="6" height="12" x="47" y="24" fill="#888" rx="9.4" ry="4.8"><animate attributeName="opacity" begin="-0.917s" dur="1s" keyTimes="0;1" repeatCount="indefinite" values="1;0"/></rect><rect width="6" height="12" x="47" y="24" fill="#888" rx="9.4" ry="4.8" transform="rotate(30 50 50)"><animate attributeName="opacity" begin="-0.833s" dur="1s" keyTimes="0;1" repeatCount="indefinite" values="1;0"/></rect><rect width="6" height="12" x="47" y="24" fill="#888" rx="9.4" ry="4.8" transform="rotate(60 50 50)"><animate attributeName="opacity" begin="-0.75s" dur="1s" keyTimes="0;1" repeatCount="indefinite" values="1;0"/></rect><rect width="6" height="12" x="47" y="24" fill="#888" rx="9.4" ry="4.8" transform="rotate(90 50 50)"><animate attributeName="opacity" begin="-0.667s" dur="1s" keyTimes="0;1" repeatCount="indefinite" values="1;0"/></rect><rect width="6" height="12" x="47" y="24" fill="#888" rx="9.4" ry="4.8" transform="rotate(120 50 50)"><animate attributeName="opacity" begin="-0.583s" dur="1s" keyTimes="0;1" repeatCount="indefinite" values="1;0"/></rect><rect width="6" height="12" x="47" y="24" fill="#888" rx="9.4" ry="4.8" transform="rotate(150 50 50)"><animate attributeName="opacity" begin="-0.5s" dur="1s" keyTimes="0;1" repeatCount="indefinite" values="1;0"/></rect><rect width="6" height="12" x="47" y="24" fill="#888" rx="9.4" ry="4.8" transform="rotate(180 50 50)"><animate attributeName="opacity" begin="-0.417s" dur="1s" keyTimes="0;1" repeatCount="indefinite" values="1;0"/></rect><rect width="6" height="12" x="47" y="24" fill="#888" rx="9.4" ry="4.8" transform="rotate(210 50 50)"><animate attributeName="opacity" begin="-0.333s" dur="1s" keyTimes="0;1" repeatCount="indefinite" values="1;0"/></rect><rect width="6" height="12" x="47" y="24" fill="#888" rx="9.4" ry="4.8" transform="rotate(240 50 50)"><animate attributeName="opacity" begin="-0.25s" dur="1s" keyTimes="0;1" repeatCount="indefinite" values="1;0"/></rect><rect width="6" height="12" x="47" y="24" fill="#888" rx="9.4" ry="4.8" transform="rotate(270 50 50)"><animate attributeName="opacity" begin="-0.167s" dur="1s" keyTimes="0;1" repeatCount="indefinite" values="1;0"/></rect><rect width="6" height="12" x="47" y="24" fill="#888" rx="9.4" ry="4.8" transform="rotate(300 50 50)"><animate attributeName="opacity" begin="-0.083s" dur="1s" keyTimes="0;1" repeatCount="indefinite" values="1;0"/></rect><rect width="6" height="12" x="47" y="24" fill="#888" rx="9.4" ry="4.8" transform="rotate(330 50 50)"><animate attributeName="opacity" begin="0s" dur="1s" keyTimes="0;1" repeatCount="indefinite" values="1;0"/></rect></svg>