<svg xmlns="http://www.w3.org/2000/svg" viewBox="0 0 1024 1024"><path fill="#888" d="M262.571 307.243a176.512 176.512 0 1 0 353.024 0 176.512 176.512 0 1 0-353.024 0m711.808 116.992c-10.496-10.496-27.648-10.496-38.144 0L643.37 716.97c-2.304 2.304-3.968 5.12-5.248 7.936-.384 0-.64.128-1.024.128s-.768-.128-1.024-.128a26.957 26.957 0 0 1-36.224-1.792c-10.496-10.496-10.496-27.648 0-38.144l86.784-86.784c-36.864-36.352-84.608-63.488-138.496-77.568l-76.8 76.8-28.928 110.848c-.64 1.792-5.504 1.792-6.144 0L408.49 601.643l-80.384-80.384c-124.16 33.408-214.784 136.832-214.784 259.328v50.176c0 24.576 22.144 44.544 49.536 44.544h64v-84.608a14.592 14.592 0 1 1 29.184 0v84.608h460.032c27.392 0 49.536-19.968 49.536-44.544v-50.176c0-32.128-6.656-62.72-18.048-91.264l227.2-227.2c10.112-10.24 10.112-27.392-.384-37.888z"/></svg>