<svg xmlns="http://www.w3.org/2000/svg" viewBox="0 0 1024 1024"><path fill="#00CF71" d="M468.285 858.616A291.97 291.97 0 0 1 269.58 747.64a304.27 304.27 0 0 1-63.736-221.633 42.2 42.2 0 0 0-8.642-30.237 40.68 40.68 0 0 0-27.013-15.166 43.116 43.116 0 0 0-44.484 36.555 387.3 387.3 0 0 0 81.038 281.995A371.75 371.75 0 0 0 459.456 940.46l4.424.207a39.74 39.74 0 0 0 25.307-9.148 41.241 41.241 0 0 0-20.883-72.81zm16.666-159.34a136.45 136.45 0 0 1-92.886-52.02A142.17 142.17 0 0 1 362.07 543.31a42.2 42.2 0 0 0-8.567-30.256 40.68 40.68 0 0 0-27.013-15.166 41.616 41.616 0 0 0-44.484 36.461 225.46 225.46 0 0 0 47.203 164.402 217.08 217.08 0 0 0 147.23 82.257l4.312.206a40.547 40.547 0 0 0 40.078-36.555 41.4 41.4 0 0 0-8.735-30.424 39.9 39.9 0 0 0-27.144-14.978zm485.35-9.373-77.327-90.487a22.89 22.89 0 0 0-29.993-4.124 23.06 23.06 0 0 0 5.83-13.46 24.63 24.63 0 0 0-5.83-17.47l-77.327-90.487a23.114 23.114 0 0 0-33.237-2.306l-16.871 14.997a15.7 15.7 0 0 0-1.875-3.318l-5.117-6.018a18.9 18.9 0 0 0-14.997-6.13l24.37-21.801a63.02 63.02 0 0 0 20.995-43.116 61.86 61.86 0 0 0-8.53-34.249 20.62 20.62 0 0 0 12.054-4.611v-.094l16.066-14.36a20.94 20.94 0 0 0 7.123-14.565 21.52 21.52 0 0 0-5.024-15.465l-28.119-32.843a20.49 20.49 0 0 0-29.43-2.118l-16.066 14.359a20.1 20.1 0 0 0-6.336 11.454 60.96 60.96 0 0 0-31.868-13.254 59.35 59.35 0 0 0-44.69 15.372l-25.008 22.195c.207-.806.9-1.2 1.013-2.006a19.95 19.95 0 0 0-4.724-14.359l-5.118-6.13c-.693-.712-1.612-1.106-2.306-1.706l16.778-14.865a24.37 24.37 0 0 0 2.212-33.95l-77.42-90.486a23.02 23.02 0 0 0-29.994-4.217 23.62 23.62 0 0 0 5.83-13.46 24.48 24.48 0 0 0-5.83-17.471L422.208 48.98a23.13 23.13 0 0 0-16.178-8.23 22.6 22.6 0 0 0-17.171 5.924l-100.534 89.287a24.54 24.54 0 0 0-2.306 34.042l77.42 90.487a23.04 23.04 0 0 0 16.178 8.136 10 10 0 0 0 1.706.093 22.85 22.85 0 0 0 12.148-3.749 23.45 23.45 0 0 0-5.624 13.366l-.094 1.612a23.73 23.73 0 0 0 5.83 15.765l77.327 90.375a23.17 23.17 0 0 0 16.271 8.229h1.706a22.76 22.76 0 0 0 15.466-5.924l24.707-21.989a16 16 0 0 0 1.406 2.512l5.117 6.018a19.18 19.18 0 0 0 13.254 6.73h1.312l-23.001 20.489a61.15 61.15 0 0 0-18.484 63.736 20.45 20.45 0 0 0-19.383 3.918l-67.73 60.418a21.65 21.65 0 0 0-2.099 30.125l53.632 62.667a20.1 20.1 0 0 0 14.266 7.33c.506 0 1.012.094 1.5.094a20.38 20.38 0 0 0 13.666-5.23l67.691-60.362a21.48 21.48 0 0 0 6.636-19.178 62.3 62.3 0 0 0 19.59 5.324c1.5.094 2.811.207 4.311.207a61.13 61.13 0 0 0 40.473-15.466l23.6-20.995c-.093.6-.805 1.012-.805 1.612a19.4 19.4 0 0 0 4.724 14.266l5.117 6.017a32 32 0 0 0 2.906 2.212l-24.914 22.195a23.88 23.88 0 0 0-7.929 16.478 24.48 24.48 0 0 0 5.83 17.471l77.327 90.487a23.55 23.55 0 0 0 16.178 8.229h1.5a23 23 0 0 0 12.26-3.918 23.26 23.26 0 0 0-5.625 13.122l-.093 1.875a24.24 24.24 0 0 0 5.83 15.765l77.326 90.487a23.13 23.13 0 0 0 16.178 8.23h1.612a23.64 23.64 0 0 0 15.466-5.925l100.534-89.586a24.37 24.37 0 0 0 2.08-33.855z"/></svg>