<svg xmlns="http://www.w3.org/2000/svg" viewBox="0 0 1024 1024"><path fill="#2ecc71" d="M58.667 512a453.333 453.333 0 1 0 906.666 0 453.333 453.333 0 1 0-906.666 0"/><path fill="#FFF" d="M745.653 324.587c-47.68 0-86.293 45.76-86.293 81.28h86.293s0 1.6-49.333 69.6c14.027 9.333 30.987 16.426 49.333 16.426 47.68 0 86.347-37.066 86.347-82.88 0-45.76-38.667-84.426-86.347-84.426m-201.6 278.666 151.574-179.68H457.76L351.04 298.667H245.333V345.6H326.4l69.173 77.973h-94.56l151.574 179.734c11.68 13.866 18.026 31.093 18.026 48.906V785.12h-8.586a50.5 50.5 0 0 0-34.88 13.6 47.9 47.9 0 0 0-14.4 33.28h172.586c0-23.467-22.08-46.933-49.333-46.933h-9.973v-132.8c0-17.867 6.4-35.147 18.08-49.014z"/></svg>