<svg xmlns="http://www.w3.org/2000/svg" viewBox="0 0 1109 1024"><path fill="#27C087" d="M366.637 730.94h487.424a61.22 61.22 0 0 0 60.926-60.925V548.142a60.93 60.93 0 0 1 121.861 0v121.862c0 100.271-82.537 182.787-182.787 182.787H366.637v79.81c.076.859.12 1.717.12 2.575a26.803 26.803 0 0 1-43.995 20.58L75.402 814.41l6.7 1.216a26.803 26.803 0 0 1 0-46.915l243.712-143.18a26.814 26.814 0 0 1 40.823 22.806v.304zM732.211 171.6V88.748a26.803 26.803 0 0 1 40.182-23.153l247.405 142.571v-.608a26.814 26.814 0 0 1 0 46.297L772.426 396.437a26.814 26.814 0 0 1-40.183-23.153v-79.822H244.787a61.22 61.22 0 0 0-60.926 60.925V468.31a60.925 60.925 0 1 1-121.85 0V354.387c0-100.271 82.537-182.787 182.787-182.787z"/></svg>