<svg xmlns="http://www.w3.org/2000/svg" viewBox="0 0 1024 1024"><path fill="#22C30C" d="M512 3.413C230.582 3.413 3.413 230.582 3.413 512S230.582 1020.587 512 1020.587 1020.587 793.418 1020.587 512 793.418 3.413 512 3.413m242.779 779.23c-9.967 10.866-28.444 10.104-38.582 0l-13.995-13.994q-48.515-48.504-97.03-97.03a227.6 227.6 0 0 1-67.47 25.623 243.5 243.5 0 0 1-149.595-17.01c-42.689-19.251-79.143-52.748-103.378-92.684-25.031-41.335-37.24-91.192-33.45-139.423a242.5 242.5 0 0 1 54.954-135.873c61.86-75.435 170.849-104.926 262.349-71.032a243.96 243.96 0 0 1 114.551 87.791c28.012 39.254 42.553 87.734 42.735 135.817a268 268 0 0 1-3.322 38.752c-7.828 52.156-34.725 99.818-72.932 135.305l6.61 6.61 98.555 98.612c10.786 10.729 10.001 27.648 0 38.536"/><path fill="#22C30C" d="M652.3 546.247a214 214 0 0 0 3.913-8.135c.319-.694.615-1.388.922-2.082 1.707-4.392 3.413-8.784 4.835-13.278a209 209 0 0 0 7.464-30.606c.125-.751.228-1.525.33-2.276-.398 2.105-1.035 4.324.24-1.638.272-2.48.511-4.972.693-7.464.398-5.302.58-10.604.592-15.929s-.194-10.615-.592-15.929q-.296-3.925-.728-7.828v-.09c-1.138-6.827-.227-1.9 0 0 0 .352.125.716.193 1.137-.182-1.013-.307-2.048-.466-3.072a208 208 0 0 0-7.51-31.425c-1.57-4.859-3.413-9.57-5.222-14.348-.364-.808-.717-1.615-1.138-2.423a233 233 0 0 0-3.265-6.827 210 210 0 0 0-15.758-26.305c-1.263-1.798-7.965-9.853-1.946-2.867-1.615-1.878-3.095-3.892-4.687-5.792q-4.78-5.689-9.956-11.07c-6.94-7.191-14.54-13.415-22.118-19.9 6.986 5.985-1.07-.683-2.868-1.946a226 226 0 0 0-6.178-4.187q-6.28-4.084-12.822-7.714-6.907-3.823-14.086-7.122a84 84 0 0 0-2.572-1.138c-1.865-.706-3.697-1.48-5.575-2.162a206 206 0 0 0-30.868-8.806c-3.037-.626-6.098-1.138-9.159-1.661-1.024-.16-2.059-.285-3.083-.467l1.138.193c1.9.228 6.826 1.138 0 0H512q-7.464-.853-14.962-1.137a214 214 0 0 0-32.313 1.137c-1.251.228-2.56.353-3.8.558-2.548.421-5.097.887-7.623 1.41q-7.543 1.537-14.95 3.619a211 211 0 0 0-14.507 4.665c-2.276.82-4.551 1.718-6.827 2.594l-2.093.933a211.5 211.5 0 0 0-27.591 15.155q-3.755 2.458-7.407 5.052c-.842.603-4.347 3.288-4.472 3.334a137 137 0 0 0-2.389 1.957q-2.867 2.389-5.689 4.858a212 212 0 0 0-21.22 21.902c-1.501 1.798-7.054 10.24-2.275 2.628-1.32 2.083-2.981 4.017-4.392 6.03q-4.3 6.11-8.158 12.516t-7.134 13.13q-1.706 3.413-3.288 6.77c-.978 2.116-3.675 10.137-.887 1.775-3.414 10.172-7.35 19.934-9.888 30.401q-1.911 7.896-3.208 15.93c0 .238-.057.477-.091.705.33-1.718.762-2.902-.319 2.275a214 214 0 0 0-.603 6.053 214 214 0 0 0-.125 33.405c.194 2.56.467 5.109.74 7.669.91 4.392.717 4.335.455 3.265l.068.467q1.206 7.259 2.913 14.404a228 228 0 0 0 9.41 29.582c.523 1.138 1.012 2.276 1.535 3.414q1.593 3.413 3.288 6.826 3.414 6.668 7.27 13.119 4.051 6.701 8.58 13.13c1.285 1.809 2.776 3.538 3.97 5.416-4.653-7.339-.238-.353 1.275 1.479a211 211 0 0 0 21.618 22.55q3.322 2.993 6.77 5.837c1.843 1.514 8.829 5.94 1.49 1.275 3.97 2.525 7.646 5.586 11.582 8.18a210 210 0 0 0 26.84 14.928c1.138.546 2.344 1.058 3.516 1.593 2.276.864 4.483 1.752 6.736 2.571 4.779 1.73 9.626 3.288 14.507 4.665s9.921 2.606 14.95 3.618c2.526.524 5.075.99 7.623 1.411l.467.068c-1.058-.25-1.138-.443 3.197.444a228 228 0 0 0 31.653 1.138q7.77-.285 15.485-1.138c5.28-1.138 4.096-.66 2.367-.319l.705-.102q3.413-.563 6.827-1.229a208.5 208.5 0 0 0 30.97-8.59c2.571-.922 5.109-2.128 7.691-3.004.854-.387 1.718-.762 2.56-1.138q6.486-3.003 12.743-6.44c9.034-4.971 17.067-11.172 25.691-16.668-7.611 4.836.842-.728 2.629-2.275s3.777-3.22 5.632-4.881q5.53-4.984 10.695-10.331 5.45-5.69 10.433-11.64c1.434-1.718 2.765-3.527 4.21-5.222-5.757 6.724-.228.193 1.138-1.65a211.5 211.5 0 0 0 16.281-26.92z"/></svg>