<svg xmlns="http://www.w3.org/2000/svg" viewBox="0 0 1024 1024"><path fill="#41c88a" d="M0 512a512 512 0 1 0 1024 0A512 512 0 1 0 0 512"/><path fill="#fff" d="M459.12 507.34c0 71.52-57.705 129.495-128.894 129.495S201.311 578.84 201.311 507.34c0-71.521 57.726-129.516 128.915-129.516 71.19 0 128.895 57.995 128.895 129.516zm-128.894 0 352.28-188.195zm0 0 354.351 176.803zm451.038 176.74c0 53.687-43.29 97.184-96.687 97.184-53.438 0-96.665-43.497-96.665-97.184 0-53.645 43.227-97.142 96.665-97.142 53.377 0 96.687 43.497 96.687 97.142m-2.071-364.935c0 53.646-43.31 97.142-96.687 97.142s-96.686-43.496-96.686-97.142c0-53.625 43.31-97.122 96.686-97.122s96.687 43.497 96.687 97.143zm-172.93 13.567 21.541 39.85L443.711 473.04l-21.542-39.83zm16.094 291.343-19.76 40.763-177.093-86.641 19.74-40.763z"/></svg>